<svg xmlns="http://www.w3.org/2000/svg" width="75.713" height="39.103" viewBox="0 0 75.713 39.103">
  <g id="Group_77" data-name="Group 77" transform="translate(0.166 0.411)">
    <g id="Group_76" data-name="Group 76" transform="translate(0 -0.411)">
      <g id="freepik--Car--inject-98" transform="translate(0 1.731)">
        <path id="Ellipse_13" data-name="Ellipse 13" d="M36.96.174C57.366.227,73.913,2.182,73.92,4.54S57.39,8.768,36.984,8.714.031,6.706.024,4.348,16.554.121,36.96.174Z" transform="translate(1.216 28.492) rotate(-1.835)" fill="#263238" stroke="#263238" stroke-width="0.329"/>
        <path id="Path_1664" data-name="Path 1664" d="M194.687,107.19a6.206,6.206,0,0,1-.708,1.2,54.021,54.021,0,0,1-5.619,1.622l-17.254,3.777-2.09-.224-7.306.235a9.791,9.791,0,0,1,.133-7.08c1.591-3.513,9.553-4.888,11.8-4.172s7.521,3.019,11.308,1.76,6.808-3.733,8.071-3.4,1.865,2.361,1.865,3.239S194.687,107.19,194.687,107.19Z" transform="translate(-120.288 -83.54)" fill="#263238" stroke="#263238" stroke-miterlimit="10" stroke-width="0.329"/>
        <path id="Path_1665" data-name="Path 1665" d="M155.2,115.242c.151-3.626,2.577-6.571,5.418-6.579h3.081l-.055,1.3a6.99,6.99,0,0,1,1.847,5.254,7.6,7.6,0,0,1-2.283,5.266l-.055,1.315H160.07C157.227,121.8,155.046,118.869,155.2,115.242Z" transform="translate(-120.733 -85.928)" fill="#263238" stroke="#263238" stroke-miterlimit="10" stroke-width="0.329"/>
        <ellipse id="Ellipse_14" data-name="Ellipse 14" cx="6.581" cy="5.132" rx="6.581" ry="5.132" transform="translate(37.189 35.274) rotate(-83.68)" fill="#878787" stroke="#263238" stroke-miterlimit="10" stroke-width="0.329"/>
        <path id="Path_1666" data-name="Path 1666" d="M162.157,118.235h0c-.049-.163-.094-.329-.131-.5h0c-.037-.172-.068-.346-.094-.522h0a6.953,6.953,0,0,1-.055-1.2,6.844,6.844,0,0,1,.549-2.45l.01-.02c.07-.162.148-.321.232-.473l.016-.029c.084-.151.172-.3.266-.438l.015-.023a4.2,4.2,0,0,1,3.39-2.016,3.649,3.649,0,0,1,2.882,1.5h0a2.269,2.269,0,0,1,.141.2h0c.045.064.09.131.133.2h0c.043.066.084.135.123.2h0c.039.069.077.137.112.208v.011c.035.069.068.137.1.21v.015c.031.068.061.139.09.209a.04.04,0,0,0,.01.026c.027.069.053.137.078.207l.012.033c.023.067.045.135.066.205a.145.145,0,0,0,.014.041c.02.066.037.135.056.2,0,.018.008.035.014.053.016.064.031.131.045.2a.344.344,0,0,0,.014.061c.014.065.026.129.037.2l.012.072c.011.061.019.125.027.2l.011.08c0,.061.014.123.02.186v.088a.994.994,0,0,0,.012.183v.659c0,.09-.012.229-.023.343v.082c-.01.1-.022.2-.036.291v.045c-.037.239-.086.471-.144.7h0a6.011,6.011,0,0,1-1.576,2.827l-.027.026c-.09.086-.182.166-.278.245l-.02.014a3.762,3.762,0,0,1-2.346.88,3.48,3.48,0,0,1-2.291-.878h0a5.027,5.027,0,0,1-1.468-2.319Z" transform="translate(-123.15 -86.7)" fill="#fff" stroke="#263238" stroke-miterlimit="10" stroke-width="0.329"/>
        <path id="Path_1667" data-name="Path 1667" d="M162.7,118.8a5.748,5.748,0,0,1,.36-1.783l1.693,1.061a2.616,2.616,0,0,0-.131.718v.107l-1.924.313C162.692,119.078,162.692,118.939,162.7,118.8Z" transform="translate(-123.774 -89.939)" fill="#263238" stroke="#263238" stroke-miterlimit="10" stroke-width="0.329"/>
        <path id="Path_1668" data-name="Path 1668" d="M166.6,115.075a1.777,1.777,0,0,0-.479.391l-1.193-1.834a3.687,3.687,0,0,1,1.435-.991Z" transform="translate(-124.583 -88.351)" fill="#263238" stroke="#263238" stroke-miterlimit="10" stroke-width="0.329"/>
        <path id="Path_1669" data-name="Path 1669" d="M165.132,122.024a1.87,1.87,0,0,0,.316.458l-.978,2.192a4.038,4.038,0,0,1-1.114-1.564Z" transform="translate(-124.007 -91.357)" fill="#263238" stroke="#263238" stroke-miterlimit="10" stroke-width="0.329"/>
        <path id="Path_1670" data-name="Path 1670" d="M171.2,117.27l1.726-1.2a5.222,5.222,0,0,1,.413,1.99l-1.93.055a2.363,2.363,0,0,0-.209-.845Z" transform="translate(-126.772 -89.615)" fill="#263238" stroke="#263238" stroke-miterlimit="10" stroke-width="0.329"/>
        <path id="Path_1671" data-name="Path 1671" d="M169.894,115.056a1.428,1.428,0,0,0-.461-.211l.281-2.424a3.034,3.034,0,0,1,1.619.866Z" transform="translate(-126.162 -88.284)" fill="#263238" stroke="#263238" stroke-miterlimit="10" stroke-width="0.329"/>
        <path id="Path_1672" data-name="Path 1672" d="M168.041,123.5a1.468,1.468,0,0,0,.184.012,1.369,1.369,0,0,0,.508-.1l.939,2.1a3.034,3.034,0,0,1-1.554.442,2.779,2.779,0,0,1-.444-.033Z" transform="translate(-125.536 -91.919)" fill="#263238" stroke="#263238" stroke-miterlimit="10" stroke-width="0.329"/>
        <path id="Path_1673" data-name="Path 1673" d="M171.052,121.534l1.91.426a5.169,5.169,0,0,1-.933,1.836l-1.224-1.808A2.3,2.3,0,0,0,171.052,121.534Z" transform="translate(-126.633 -91.158)" fill="#263238" stroke="#263238" stroke-miterlimit="10" stroke-width="0.329"/>
        <path id="Path_1674" data-name="Path 1674" d="M203.874,109.8c.071-3.038,1.209-5.508,2.542-5.514h3.073l-.256,11H206.16C204.826,115.291,203.8,112.828,203.874,109.8Z" transform="translate(-137.669 -84.849)" fill="#263238" stroke="#263238" stroke-miterlimit="10" stroke-width="0.329"/>
        <path id="Path_1675" data-name="Path 1675" d="M209.052,109.8c-.071,3.038.952,5.5,2.285,5.49s2.471-2.473,2.542-5.514-.952-5.5-2.286-5.49S209.122,106.767,209.052,109.8Z" transform="translate(-139.773 -84.849)" fill="#878787" stroke="#263238" stroke-miterlimit="10" stroke-width="0.329"/>
        <path id="Path_1676" data-name="Path 1676" d="M209.881,112.3h0c-.024-.137-.045-.275-.063-.419h0c-.017-.142-.031-.289-.043-.438h0c-.024-.324-.033-.661-.026-1.007a9.616,9.616,0,0,1,.262-2.053v-.015c.033-.137.071-.27.11-.391v-.026c.041-.125.082-.248.127-.366v-.02c.391-1.028.964-1.687,1.592-1.691.535,0,1.011.477,1.351,1.26h0c.023.052.045.105.067.158h0c.021.055.043.11.062.166h0c.02.057.039.113.057.17h0c.017.056.035.113.053.174h0c.018.058.034.116.047.176V108c.015.057.029.116.043.176a.054.054,0,0,0,0,.02c.014.056.026.115.037.174a.214.214,0,0,1,0,.027c.011.057.021.115.033.172v.035a1.275,1.275,0,0,0,.025.17v.043c0,.055.012.11.022.164,0,.017,0,.035,0,.053,0,.053.011.107.015.16v.061l.012.159v1.359l-.018.242v.039c-.018.2-.041.391-.068.587h0a6.731,6.731,0,0,1-.749,2.366l-.011.024a1.973,1.973,0,0,1-.131.2v.012a1.438,1.438,0,0,1-1.1.737,1.349,1.349,0,0,1-1.073-.735h0A5.317,5.317,0,0,1,209.881,112.3Z" transform="translate(-140.057 -85.552)" fill="#fff" stroke="#263238" stroke-miterlimit="10" stroke-width="0.329"/>
        <path id="Path_1677" data-name="Path 1677" d="M105.214,111.7c.15-3.627,2.577-6.572,5.417-6.579h3.082c2.842,0,5.024,2.933,4.874,6.554s-2.576,6.577-5.419,6.577h-3.08C107.245,118.263,105.063,115.32,105.214,111.7Z" transform="translate(-103.621 -84.489)" fill="#263238" stroke="#263238" stroke-miterlimit="10" stroke-width="0.329"/>
        <path id="Path_1678" data-name="Path 1678" d="M166.93,77.027s1.49.441,1.687.88.311.753.311.753l4.5,6.594a2.142,2.142,0,0,1,2.128,1.256,8.736,8.736,0,0,1,.311,3.266,18.626,18.626,0,0,1,1.249,5.149,23.365,23.365,0,0,1-.187,3.831s.313-4.019-.623-5.275-2.872-.313-3.617,1.947-1.638,6.467-1.638,6.467l-19.787,4.083s1-5.275-.313-8.29-7.428-2.824-8.553,2.639-.749,6.467-.749,6.467-4.183.88-16.919.691-19.728-1.695-21.6-2.2c0,0-.425-2.324-.561-3.7a4.514,4.514,0,0,1,.375-2.324,19,19,0,0,1,.438-3.392,12.167,12.167,0,0,1,1.249-2.2,11.52,11.52,0,0,1,2.5-3.578,26.784,26.784,0,0,1,4.747-3.077,14.247,14.247,0,0,0,2.621-1.318c1.187-.815,8.553-5.966,10.864-7.346s7.3-2.074,8.3-2.262,12.487-1,16.483-1S162.373,75.27,166.93,77.027Z" transform="translate(-102.536 -75.082)" fill="#e3e3e3" stroke="#263238" stroke-miterlimit="10" stroke-width="0.329"/>
        <path id="Path_1679" data-name="Path 1679" d="M102.564,107.049a3.808,3.808,0,0,1,.375-2.123s.04-.736.132-1.517c7.813,2.118,21.789,2.26,25.687,1.944,4.479-.362,12.423-1.357,12.766-2.542s3.423-3.873,5.532-4.6c1.807-.622,22.766-3.288,28.724-4.039a8.512,8.512,0,0,1,.07,2.09,15.87,15.87,0,0,1,1.249,4.7,19.516,19.516,0,0,1-.187,3.5s.313-3.672-.623-4.819-2.872-.286-3.617,1.779-1.623,5.91-1.623,5.91l-19.787,3.73s1-4.819-.313-7.574-7.428-2.581-8.553,2.411-.749,5.908-.749,5.908-4.183.8-16.919.632-19.728-1.548-21.6-2.008C103.126,110.434,102.69,108.311,102.564,107.049Z" transform="translate(-102.538 -80.038)" fill="none" opacity="0.15" style="isolation: isolate"/>
        <path id="Path_1680" data-name="Path 1680" d="M177.947,79.811a10.137,10.137,0,0,1,5.236-1.983,20.981,20.981,0,0,1,2.637,7.755c-4.888.762-10.34,1.63-10.34,1.63s-1.262.458-1.721,0a1.185,1.185,0,0,1-.344-.459C173.3,86.466,175.307,81.706,177.947,79.811Z" transform="translate(-126.871 -76.198)" fill="#fff" stroke="#263238" stroke-miterlimit="10" stroke-width="0.329"/>
        <path id="Path_1681" data-name="Path 1681" d="M192.517,77.838a27.514,27.514,0,0,1,3.922.5c1.32.287,1.779.344,2.008.575a23.759,23.759,0,0,1,3.271,5.038.665.665,0,0,1-.631.516c-.2,0-2.6.363-5.588.827A34.221,34.221,0,0,0,192.517,77.838Z" transform="translate(-133.055 -76.202)" fill="#fff" stroke="#263238" stroke-miterlimit="10" stroke-width="0.329"/>
        <path id="Path_1682" data-name="Path 1682" d="M202.774,85.035a17.24,17.24,0,0,0-2.952-6.008" transform="translate(-136.024 -76.685)" fill="none" stroke="#263238" stroke-miterlimit="10" stroke-width="0.329"/>
        <path id="Path_1683" data-name="Path 1683" d="M194.06,95.254l1.632-.289a.418.418,0,0,1,.281.521l0,.005c-.121.4-.338.356-.338.356l-1.359.219a.362.362,0,0,1-.391-.287C193.814,95.45,193.722,95.408,194.06,95.254Z" transform="translate(-134.754 -82.161)" fill="none" stroke="#263238" stroke-miterlimit="10" stroke-width="0.329"/>
        <path id="Path_1684" data-name="Path 1684" d="M208,92.894l1.25-.234a.341.341,0,0,1,.213.429c-.092.324-.258.289-.258.289l-1.038.178a.277.277,0,0,1-.3-.235C207.811,93.05,207.74,93.021,208,92.894Z" transform="translate(-139.271 -81.346)" fill="none" stroke="#263238" stroke-miterlimit="10" stroke-width="0.329"/>
        <path id="Path_1685" data-name="Path 1685" d="M191.312,77.509a27.008,27.008,0,0,1,2.737,7.918" transform="translate(-133.83 -76.068)" fill="none" stroke="#263238" stroke-miterlimit="10" stroke-width="0.329"/>
        <path id="Path_1687" data-name="Path 1687" d="M177.354,85.361a37.22,37.22,0,0,1,1.061,3.632" transform="translate(-129.008 -78.699)" fill="none" stroke="#263238" stroke-miterlimit="10" stroke-width="0.329"/>
        <path id="Path_1690" data-name="Path 1690" d="M196.393,111.969a1.786,1.786,0,0,1-.9,1.02c-.611.2-15.471,3.062-15.471,3.062" transform="translate(-127.979 -88.031)" fill="none" stroke="#263238" stroke-miterlimit="10" stroke-width="0.329"/>
        <path id="Path_1691" data-name="Path 1691" d="M124.422,115.547s-11.377.157-15.6-1.147c0,0,.417,2.817,1.2,3.392s6.471,1.159,9.236,1.251a26.24,26.24,0,0,0,4.908-.207Z" transform="translate(-105.089 -88.841)" fill="#263238" stroke="#263238" stroke-miterlimit="10" stroke-width="0.329"/>
        <path id="Path_1692" data-name="Path 1692" d="M127.281,103.82l-1.148,2.347s-6.418.156-7.15.207-1.513.419-2.346,0a24,24,0,0,0-4.855-.886,2.072,2.072,0,0,0-.939.366,11.884,11.884,0,0,1,1.3-2.557,1.561,1.561,0,0,1,.887-.158A63.966,63.966,0,0,1,127.281,103.82Z" transform="translate(-105.912 -84.912)" fill="#263238" stroke="#263238" stroke-miterlimit="10" stroke-width="0.329"/>
        <path id="Path_1693" data-name="Path 1693" d="M153.615,96.341a12.018,12.018,0,0,1,3.78-.053c1.042.367.525,1.785-1.26,3.1s-3.255,2.571-5.083,2.782-5,.9-5.152.313.42-2.676,2.52-4.2A13.268,13.268,0,0,1,153.615,96.341Z" transform="translate(-117.434 -82.368)" fill="#fff" stroke="#000" stroke-miterlimit="10" stroke-width="0.329"/>
        <path id="Path_1694" data-name="Path 1694" d="M121.966,85.883l.524.158,2.542.072c1.335.039,3.1.088,5.048.139,2.69.072,5.733.147,8.479.2,4.2.088,7.715.133,8.243.055a5.411,5.411,0,0,0,2.864-1.286,6.817,6.817,0,0,0,1.492-1.914,25.238,25.238,0,0,1,4.436-5.134c-5.038-.587-17.059-.367-18.423-.315a9.093,9.093,0,0,0-1.261.153,12.933,12.933,0,0,0-4.46,1.58c-.2.133-.51.342-.905.606-.923.616-2.291,1.523-3.666,2.434l-2.4,1.586Z" transform="translate(-108.481 -76.174)" fill="#fff" stroke="#263238" stroke-miterlimit="10" stroke-width="0.329"/>
        <path id="Path_1701" data-name="Path 1701" d="M148.746,117.3a1.332,1.332,0,1,0,1.312-1.1A1.22,1.22,0,0,0,148.746,117.3Z" transform="translate(-118.829 -89.648)" fill="#fff" stroke="#263238" stroke-miterlimit="10" stroke-width="0.329"/>
        <path id="Path_1702" data-name="Path 1702" d="M102.944,114.294c.112.525.465.9.792.825s.5-.549.391-1.075-.465-.893-.782-.825S102.833,113.77,102.944,114.294Z" transform="translate(-102.689 -88.609)" fill="#fff" stroke="#263238" stroke-miterlimit="10" stroke-width="0.329"/>
        <path id="Path_1703" data-name="Path 1703" d="M177.313,91.246s1.089-1.835,1.777-1.955,3.615-.229,4.246.174.458,1.72.229,2.065-1.148.516-1.955.459-3.5.172-3.5.172-1.605,1.147-2.18,1.032-1.32-1.369-.8-2.067S176.451,90.62,177.313,91.246Z" transform="translate(-127.672 -80.033)" fill="#263238" stroke="#263238" stroke-miterlimit="10" stroke-width="0.329"/>
        <line id="Line_28" data-name="Line 28" x1="1.895" y2="0.403" transform="translate(47.348 11.307)" fill="none" stroke="#263238" stroke-miterlimit="10" stroke-width="0.329"/>
        <path id="Path_1704" data-name="Path 1704" d="M166.93,77.027s1.49.441,1.687.88.311.753.311.753l4.5,6.594a2.142,2.142,0,0,1,2.128,1.256,8.736,8.736,0,0,1,.311,3.266,18.626,18.626,0,0,1,1.249,5.149,23.365,23.365,0,0,1-.187,3.831s.313-4.019-.623-5.275-2.872-.313-3.617,1.947-1.638,6.467-1.638,6.467l-19.787,4.083s1-5.275-.313-8.29-7.428-2.824-8.553,2.639-.749,6.467-.749,6.467-4.183.88-16.919.691-19.728-1.695-21.6-2.2c0,0-.425-2.324-.561-3.7a4.514,4.514,0,0,1,.375-2.324,19,19,0,0,1,.438-3.392,12.167,12.167,0,0,1,1.249-2.2,11.52,11.52,0,0,1,2.5-3.578,26.784,26.784,0,0,1,4.747-3.077,14.247,14.247,0,0,0,2.621-1.318c1.187-.815,8.553-5.966,10.864-7.346s7.3-2.074,8.3-2.262,12.487-1,16.483-1S162.373,75.27,166.93,77.027Z" transform="translate(-102.536 -75.082)" fill="none" stroke="#263238" stroke-miterlimit="10" stroke-width="0.329"/>
        <path id="Path_1705" data-name="Path 1705" d="M110.122,95.683s1.153.42.839.841-2.047,1.521-2.833,2.886-.946,2.047-1.312,2.047-1.164-.681-1.054-1.023A6.58,6.58,0,0,1,110.122,95.683Z" transform="translate(-103.843 -82.246)" fill="#fff" stroke="#000" stroke-miterlimit="10" stroke-width="0.329"/>
        <path id="Path_1706" data-name="Path 1706" d="M210.4,112.321a9.531,9.531,0,0,1,.164-1.59l.782.946a4.326,4.326,0,0,0-.068.644v.1l-.882.28C210.4,112.565,210.4,112.439,210.4,112.321Z" transform="translate(-140.32 -87.726)" fill="#263238" stroke="#263238" stroke-miterlimit="10" stroke-width="0.329"/>
        <path id="Path_1707" data-name="Path 1707" d="M212.2,108.991a1.342,1.342,0,0,0-.221.346l-.545-1.636a2.264,2.264,0,0,1,.658-.88Z" transform="translate(-140.74 -86.311)" fill="#263238" stroke="#263238" stroke-miterlimit="10" stroke-width="0.329"/>
        <path id="Path_1708" data-name="Path 1708" d="M211.516,115.187a2.158,2.158,0,0,0,.145.408l-.45,1.955a4.477,4.477,0,0,1-.51-1.4Z" transform="translate(-140.444 -89.281)" fill="#263238" stroke="#263238" stroke-miterlimit="10" stroke-width="0.329"/>
        <path id="Path_1709" data-name="Path 1709" d="M214.3,110.946l.782-1.071a8.791,8.791,0,0,1,.2,1.775l-.884.049a3.881,3.881,0,0,0-.094-.753Z" transform="translate(-141.906 -87.431)" fill="#263238" stroke="#263238" stroke-miterlimit="10" stroke-width="0.329"/>
        <path id="Path_1710" data-name="Path 1710" d="M213.711,108.963a.592.592,0,0,0-.211-.2l.129-2.17a1.486,1.486,0,0,1,.743.772Z" transform="translate(-141.582 -86.24)" fill="#263238" stroke="#263238" stroke-miterlimit="10" stroke-width="0.329"/>
        <path id="Path_1711" data-name="Path 1711" d="M212.859,116.5a.306.306,0,0,0,.084.011.376.376,0,0,0,.233-.09l.434,1.873a.978.978,0,0,1-.714.391.725.725,0,0,1-.2-.031Z" transform="translate(-141.257 -89.724)" fill="#263238" stroke="#263238" stroke-miterlimit="10" stroke-width="0.329"/>
        <path id="Path_1712" data-name="Path 1712" d="M214.229,114.749l.876.378a6.967,6.967,0,0,1-.429,1.636l-.561-1.613A2.928,2.928,0,0,0,214.229,114.749Z" transform="translate(-141.832 -89.148)" fill="#263238" stroke="#263238" stroke-miterlimit="10" stroke-width="0.329"/>
      </g>
      <g id="Group_503" data-name="Group 503" transform="translate(34.936)">
        <g id="Group_76-2" data-name="Group 76">
          <path id="Path_1734" data-name="Path 1734" d="M176.907,73.855c-3.2.111-4.229.131-4.229.131l1.585-.824,4.241-.156-.051.025S180.108,73.745,176.907,73.855Z" transform="translate(-168.431 -72.956)" fill="#020202"/>
          <path id="Path_1735" data-name="Path 1735" d="M174.671,73.737l-5,2.406,11.611.334-2.031-2.74Z" transform="translate(-169.674 -73.057)" fill="#020202"/>
          <path id="Path_1736" data-name="Path 1736" d="M175.426,72.643l3.655,2.263L177,76.094l-2-2.789Z" transform="translate(-165.43 -72.643)" fill="#020202"/>
        </g>
      </g>
    </g>
  </g>
</svg>
