<svg xmlns="http://www.w3.org/2000/svg" width="75.269" height="26.824" viewBox="0 0 75.269 26.824">
  <g id="freepik--Car--inject-26" transform="translate(-239.001 -384.076)">
    <path id="Path_1169" data-name="Path 1169" d="M326.911,430.172H314.3s.36-6.024,2.6-8.626a6.626,6.626,0,0,1,8.438-1.346c2.781,1.527,2.969,8.346,2.969,8.346h21.548s1.979-7.719,6.462-8.247,5.565,7.257,5.565,7.257l-.772,2.613Z" transform="translate(-50.46 -23.58)" fill="#263238"/>
    <path id="Path_1170" data-name="Path 1170" d="M360.771,430.016H313.964a.159.159,0,0,1-.119-.053.155.155,0,0,1-.046-.122c.017-.247.389-6.109,2.639-8.725a6.822,6.822,0,0,1,8.643-1.382c2.639,1.438,3,7.257,3.045,8.326h21.257c.284-1.036,2.286-7.742,6.571-8.247,4.6-.554,5.7,7.089,5.75,7.412a.164.164,0,0,1,0,.069l-.772,2.613A.168.168,0,0,1,360.771,430.016Zm-46.628-.33h46.513l.729-2.458c-.086-.561-1.254-7.587-5.377-7.1-4.325.521-6.3,8.062-6.324,8.138a.165.165,0,0,1-.158.122H327.967a.165.165,0,0,1-.165-.158c0-.069-.208-6.746-2.877-8.207a6.43,6.43,0,0,0-8.247,1.32C314.723,423.617,314.221,428.68,314.142,429.686Z" transform="translate(-50.124 -23.26)" fill="#263238"/>
    <path id="Path_1171" data-name="Path 1171" d="M428.857,434.4a7.436,7.436,0,0,0-.96-3.737V428.38h-2.56c-2.444,0-4.427,2.7-4.427,6.02s1.979,6.024,4.427,6.024h2.56v-2.273A7.444,7.444,0,0,0,428.857,434.4Z" transform="translate(-121.901 -29.689)" fill="#263238"/>
    <path id="Path_1172" data-name="Path 1172" d="M427.592,440.254h-2.56c-2.533,0-4.592-2.774-4.592-6.189s2.058-6.185,4.592-6.185h2.56a.165.165,0,0,1,.165.165v2.237a7.943,7.943,0,0,1,0,7.571v2.237A.165.165,0,0,1,427.592,440.254Zm-2.56-12.044c-2.349,0-4.262,2.639-4.262,5.855s1.913,5.859,4.262,5.859h2.395v-2.108a.191.191,0,0,1,.023-.082,7.6,7.6,0,0,0,0-7.313.2.2,0,0,1-.023-.086V428.22Z" transform="translate(-121.586 -29.354)" fill="#263238"/>
    <ellipse id="Ellipse_25" data-name="Ellipse 25" cx="3.549" cy="6.014" rx="3.549" ry="6.014" transform="translate(302.641 398.711)" fill="#263238"/>
    <path id="Path_1173" data-name="Path 1173" d="M435.135,440.294c-2.049,0-3.714-2.771-3.714-6.175s1.666-6.179,3.714-6.179,3.714,2.771,3.714,6.179S437.183,440.294,435.135,440.294Zm0-12.024c-1.867,0-3.385,2.623-3.385,5.849s1.517,5.845,3.385,5.845,3.385-2.623,3.385-5.845S437,428.27,435.135,428.27Z" transform="translate(-128.944 -29.394)" fill="#263238"/>
    <ellipse id="Ellipse_26" data-name="Ellipse 26" cx="2.728" cy="4.622" rx="2.728" ry="4.622" transform="translate(303.462 400.103)" fill="#fff"/>
    <path id="Path_1174" data-name="Path 1174" d="M436.8,441.726c-1.6,0-2.893-2.148-2.893-4.787s1.3-4.79,2.893-4.79,2.893,2.148,2.893,4.79S438.4,441.726,436.8,441.726Zm0-9.237c-1.412,0-2.563,2-2.563,4.46s1.151,4.457,2.563,4.457,2.563-2,2.563-4.457-1.138-4.47-2.563-4.47Z" transform="translate(-130.613 -32.216)" fill="#263238"/>
    <path id="Path_1175" data-name="Path 1175" d="M320.609,433.819a7.608,7.608,0,0,0-.99-3.813V427.68H316.1c-2.491,0-4.509,2.748-4.509,6.139s2.019,6.136,4.509,6.136h3.543v-2.326A7.6,7.6,0,0,0,320.609,433.819Z" transform="translate(-48.644 -29.22)" fill="#263238"/>
    <path id="Path_1176" data-name="Path 1176" d="M319.307,439.785h-3.543c-2.576,0-4.674-2.827-4.674-6.3s2.1-6.3,4.674-6.3h3.543a.165.165,0,0,1,.165.165v2.283a8.1,8.1,0,0,1,0,7.713v2.279A.165.165,0,0,1,319.307,439.785Zm-3.533-12.275c-2.395,0-4.345,2.679-4.345,5.974s1.95,5.971,4.345,5.971h3.368v-2.161a.15.15,0,0,1,.023-.082,7.771,7.771,0,0,0,0-7.459.141.141,0,0,1-.023-.082V427.51Z" transform="translate(-48.308 -28.885)" fill="#263238"/>
    <ellipse id="Ellipse_27" data-name="Ellipse 27" cx="4.509" cy="6.139" rx="4.509" ry="6.139" transform="translate(266.479 398.46)" fill="#263238"/>
    <path id="Path_1177" data-name="Path 1177" d="M326.5,439.785c-2.576,0-4.674-2.827-4.674-6.3s2.1-6.3,4.674-6.3,4.674,2.827,4.674,6.3S329.071,439.785,326.5,439.785Zm0-12.275c-2.395,0-4.344,2.679-4.344,5.974s1.95,5.971,4.344,5.971,4.344-2.679,4.344-5.971-1.959-5.974-4.344-5.974Z" transform="translate(-55.506 -28.885)" fill="#263238"/>
    <ellipse id="Ellipse_28" data-name="Ellipse 28" cx="3.467" cy="4.717" rx="3.467" ry="4.717" transform="translate(267.522 399.882)" fill="#fff"/>
    <path id="Path_1178" data-name="Path 1178" d="M328.629,441.248c-2,0-3.629-2.19-3.629-4.882s1.63-4.886,3.629-4.886,3.629,2.19,3.629,4.886S330.608,441.248,328.629,441.248Zm0-9.438c-1.821,0-3.3,2.042-3.3,4.556s1.481,4.552,3.3,4.552,3.3-2.042,3.3-4.552-1.488-4.556-3.3-4.556Z" transform="translate(-57.63 -31.767)" fill="#263238"/>
    <path id="Path_1179" data-name="Path 1179" d="M383.872,428.386h-.185v-.026h-2.56c-2.444,0-4.427,2.7-4.427,6.02s1.979,6.024,4.427,6.024h2.56a1.727,1.727,0,0,0,.185,0c1.959,0,3.549-2.692,3.549-6.01S385.831,428.386,383.872,428.386Z" transform="translate(-92.275 -29.676)" fill="#263238"/>
    <path id="Path_1180" data-name="Path 1180" d="M383.536,440.254h-2.745c-2.533,0-4.592-2.774-4.592-6.189s2.058-6.185,4.592-6.185h2.56a.179.179,0,0,1,.086.02h.1c2.049,0,3.714,2.771,3.714,6.179S385.585,440.254,383.536,440.254Zm-.181-.33h0a1.432,1.432,0,0,0,.168,0c1.867,0,3.385-2.623,3.385-5.845s-1.517-5.849-3.385-5.849h-.168a.178.178,0,0,1-.109-.026h-2.467c-2.352,0-4.262,2.639-4.262,5.855s1.91,5.859,4.262,5.859H383.3Z" transform="translate(-91.94 -29.354)" fill="#263238"/>
    <path id="Path_1181" data-name="Path 1181" d="M258.636,427.68h-3.546c-2.491,0-4.509,2.748-4.509,6.139s2.019,6.136,4.509,6.136h3.546c2.491,0,4.513-2.748,4.513-6.136S261.113,427.68,258.636,427.68Z" transform="translate(-7.759 -29.22)" fill="#263238"/>
    <path id="Path_1182" data-name="Path 1182" d="M258.3,439.785h-3.546c-2.576,0-4.674-2.827-4.674-6.3s2.1-6.3,4.674-6.3H258.3c2.58,0,4.678,2.827,4.678,6.3S260.867,439.785,258.3,439.785Zm-3.533-12.275c-2.395,0-4.344,2.679-4.344,5.974s1.95,5.971,4.344,5.971H258.3c2.4,0,4.348-2.679,4.348-5.971s-1.95-5.974-4.348-5.974Z" transform="translate(-7.424 -28.885)" fill="#263238"/>
    <path id="Path_1183" data-name="Path 1183" d="M314.464,400.514a2.777,2.777,0,0,0-.835-1.837,4.771,4.771,0,0,1-.917-1.5,21.913,21.913,0,0,0,.416-2.507c0-.584-.917-.419-.917-.419a2.191,2.191,0,0,0-.914-1.237,28.638,28.638,0,0,1-2.837-1.422c-1.587-.917-5.209-3.338-6.294-3.84s-2.5-2.309-9.824-2.758c-5.232-.313-12.948-.33-12.948-.33a52.058,52.058,0,0,0-5.509.168,28.908,28.908,0,0,0-6.324.937c-2.075.518-13.67,5.575-13.67,5.575s-10.533,2.943-11.674,3.8a3.948,3.948,0,0,0-1.32,2.467s-1.425,1.043-1.32,1.613a6.513,6.513,0,0,1,.092.947V407.7h1.178l.808-.462h13.479l1.036.462h10.012c-.03-.379-.049-1.458-.049-1.851,0-4.727,2.411-8.56,5.387-8.56s5.387,3.833,5.387,8.56c0,.393-.02.779-.05,1.158h25.183v-.574c0-4.4,2.025-7.977,4.519-7.977s4.516,3.573,4.516,7.977V407h2.639c.8-.468.2-1.534.2-1.534A31.575,31.575,0,0,0,314.464,400.514Z" transform="translate(-0.383 -0.385)" fill="#fff"/>
    <path id="Path_1184" data-name="Path 1184" d="M265.777,407.449H255.765a.148.148,0,0,1-.066-.017l-1.006-.445H241.31l-.769.439a.181.181,0,0,1-.082.023h-1.194a.168.168,0,0,1-.165-.165v-7.528a6.067,6.067,0,0,0-.092-.92c-.1-.6.99-1.475,1.339-1.732a4.111,4.111,0,0,1,1.382-2.51c1.151-.861,11.3-3.7,11.73-3.82.452-.2,11.612-5.06,13.673-5.578a26.441,26.441,0,0,1,5.453-.874c.307-.02.6-.036.894-.066a51.668,51.668,0,0,1,5.532-.165c.073,0,7.775.03,12.951.33,6.076.366,8.151,1.7,9.266,2.411a5.5,5.5,0,0,0,.617.363c.66.3,2.2,1.28,3.691,2.223,1.016.66,1.979,1.254,2.616,1.623a20.393,20.393,0,0,0,2.22,1.135c.214.1.409.181.61.28a2.2,2.2,0,0,1,.96,1.221,1.109,1.109,0,0,1,.775.168.541.541,0,0,1,.191.429,20.752,20.752,0,0,1-.409,2.5,5.11,5.11,0,0,0,.874,1.409,2.734,2.734,0,0,1,.811,1.593c.017.092.033.195.056.313h0a28.8,28.8,0,0,1-.571,4.948,1.241,1.241,0,0,1-.294,1.7.14.14,0,0,1-.083.023h-2.639a.167.167,0,0,1-.119-.049.155.155,0,0,1-.046-.122v-.567c0-4.308-1.95-7.812-4.351-7.812s-4.354,3.5-4.354,7.812v.567a.155.155,0,0,1-.046.122.167.167,0,0,1-.119.049h-25.17a.168.168,0,0,1-.122-.053.158.158,0,0,1-.043-.125c.033-.389.05-.775.05-1.145,0-4.618-2.342-8.4-5.222-8.4s-5.222,3.764-5.222,8.4c0,.429.02,1.475.049,1.834a.169.169,0,0,1-.154.181h-.011Zm-9.976-.33h9.8c-.026-.482-.04-1.356-.04-1.686,0-4.813,2.491-8.725,5.552-8.725s5.552,3.912,5.552,8.725a9.022,9.022,0,0,1-.036.99h24.837v-.409c0-4.49,2.1-8.141,4.684-8.141s4.681,3.652,4.681,8.141v.409h2.435c.594-.393.125-1.25.106-1.29a.159.159,0,0,1-.02-.109,28.348,28.348,0,0,0,.584-4.866c-.023-.122-.043-.228-.059-.33a2.391,2.391,0,0,0-.739-1.442,4.9,4.9,0,0,1-.95-1.564.13.13,0,0,1,0-.079,22.111,22.111,0,0,0,.412-2.471.2.2,0,0,0-.073-.175.962.962,0,0,0-.66-.079.165.165,0,0,1-.188-.119,2.056,2.056,0,0,0-.835-1.151c-.195-.1-.386-.181-.594-.274A19.891,19.891,0,0,1,308,391.328c-.66-.373-1.61-.99-2.639-1.63-1.481-.94-3.015-1.91-3.652-2.2a5.5,5.5,0,0,1-.66-.386c-1.089-.7-3.117-2-9.108-2.359-5.166-.31-12.865-.33-12.938-.33a51.019,51.019,0,0,0-5.5.165c-.3.026-.594.046-.9.066a25.474,25.474,0,0,0-5.393.868c-2.035.508-13.525,5.512-13.644,5.565-3.655,1.023-10.761,3.114-11.641,3.777a3.866,3.866,0,0,0-1.263,2.355.162.162,0,0,1-.066.112c-.557.409-1.32,1.128-1.263,1.455a6.378,6.378,0,0,1,.1.973v7.363h.97l.769-.442a.168.168,0,0,1,.082-.02h13.479a.148.148,0,0,1,.066,0Z" transform="translate(0 0)" fill="#263238"/>
    <path id="Path_1185" data-name="Path 1185" d="M352.961,392.176s-5.176,3.434-5.093,3.685,3.005.66,3.757.66H375.01s2.84-.584,3.256-1.085-5.845-4.427-8.1-5.176-6.65-.7-11.107-.33A13.611,13.611,0,0,0,352.961,392.176Z" transform="translate(-72.954 -3.748)" fill="#263238"/>
    <path id="Path_1186" data-name="Path 1186" d="M374.672,396.407H351.287c-.287,0-3.764-.33-3.916-.778-.046-.139-.122-.373,5.159-3.873a13.963,13.963,0,0,1,6.175-2.283c3.724-.3,8.686-.478,11.173.35,2.1.7,7.967,4.288,8.221,5.186a.277.277,0,0,1-.043.254c-.442.531-3.055,1.082-3.352,1.141Zm-26.911-.874a18.423,18.423,0,0,0,3.526.544h23.369a10.978,10.978,0,0,0,3.121-.99c-.238-.66-5.773-4.2-8-4.948-1.93-.643-5.746-.759-11.044-.33a13.572,13.572,0,0,0-6.014,2.223h0c-1.725,1.125-4.44,2.985-4.958,3.487Zm4.849-3.642" transform="translate(-72.615 -3.45)" fill="#263238"/>
    <path id="Path_1187" data-name="Path 1187" d="M393.878,416.527h-2.336a.623.623,0,0,1,0-1.247h2.337a.623.623,0,0,1,0,1.247Zm-2.336-.917a.294.294,0,0,0,0,.587h2.336a.294.294,0,1,0,0-.587h-2.336Z" transform="translate(-101.804 -20.911)" fill="#263238"/>
    <path id="Path_1188" data-name="Path 1188" d="M425.4,416.527h-2.336a.623.623,0,0,1,0-1.247H425.4a.623.623,0,0,1,0,1.247Zm-2.336-.917a.294.294,0,1,0,0,.587H425.4a.294.294,0,1,0,0-.587h-2.336Z" transform="translate(-122.926 -20.911)" fill="#263238"/>
    <path id="Path_1189" data-name="Path 1189" d="M401.794,424.5a.158.158,0,0,1-.125-.056l-.66-.749a.168.168,0,0,1-.03-.175l.472-1.1-.465-.934a.149.149,0,0,1-.02-.076l.082-8.969-.973-1.461a.165.165,0,0,1,.046-.228.158.158,0,0,1,.221.036l.007.01.99,1.5a.154.154,0,0,1,.03.092l-.079,8.979.485.967a.169.169,0,0,1,0,.139l-.458,1.072.6.66a.162.162,0,0,1-.122.274Z" transform="translate(-107.921 -17.855)" fill="#263238"/>
    <path id="Path_1190" data-name="Path 1190" d="M355.688,422.867a.165.165,0,0,1-.142-.079s-.257-.429-.508-.93a72.7,72.7,0,0,1-1.1-9.091,6.552,6.552,0,0,0-.729-2.844.165.165,0,0,1,.278-.177l.009.016a6.8,6.8,0,0,1,.772,3.005,74.147,74.147,0,0,0,1.069,8.946c.181.36.363.68.445.825l19.2-.165c.188,0,1.29-.106,1.808-.158l2.639-6.268,1.224-5.568-.614-.689a.166.166,0,0,1,.247-.221l.66.752a.169.169,0,0,1,.036.145l-1.254,5.681-2.679,6.377a.175.175,0,0,1-.139.1c-.066,0-1.679.168-1.936.168l-19.291.165Z" transform="translate(-76.515 -16.978)" fill="#263238"/>
    <path id="Path_1191" data-name="Path 1191" d="M283.36,393.68H299.3a7.683,7.683,0,0,0,4.259-1.085c1.92-1.254,3.091-1.679,4.843-2.764s2.421-1.418,2.421-1.418-5.938-.5-9.352-.5a20.944,20.944,0,0,0-4.928.416Z" transform="translate(-29.726 -2.569)" fill="#263238"/>
    <path id="Path_1192" data-name="Path 1192" d="M299.2,393.5h-16.24a.168.168,0,0,1-.063-.33h0l13.179-5.354a20.606,20.606,0,0,1,4.991-.429c3.408,0,9.309.495,9.369.5a.165.165,0,0,1,.059.31s-.686.346-2.408,1.412c-.795.492-1.481.854-2.144,1.207-.808.429-1.649.871-2.7,1.557A7.674,7.674,0,0,1,299.2,393.5Zm-15.4-.33h15.092a7.611,7.611,0,0,0,4.166-1.059c1.066-.693,1.91-1.141,2.728-1.574.66-.346,1.336-.709,2.121-1.194.934-.577,1.56-.943,1.943-1.158-1.55-.122-6.017-.455-8.788-.455a20.994,20.994,0,0,0-4.882.409Z" transform="translate(-29.321 -2.221)" fill="#263238"/>
    <path id="Path_1193" data-name="Path 1193" d="M321.282,409.778a.166.166,0,0,1-.023-.33,16.069,16.069,0,0,0,2.26-.419,20.177,20.177,0,0,0,1.956-2.049.158.158,0,0,1,.223-.024l.008.007a.162.162,0,0,1,.019.228l0,0a18.829,18.829,0,0,1-2.055,2.128,16.614,16.614,0,0,1-2.362.452Z" transform="translate(-55.027 -15.31)" fill="#263238"/>
    <path id="Path_1194" data-name="Path 1194" d="M286.392,416.165l7.917-1.085s-5.638,3.414-6.466,3.414-6.984.2-6.984.2l1.554-1.343,1.808-.934Z" transform="translate(-28.051 -20.777)" fill="#666"/>
    <path id="Path_1195" data-name="Path 1195" d="M280.519,418.56a.165.165,0,0,1-.109-.287l1.554-1.346L282,416.9l1.808-.93a.176.176,0,0,1,.056,0l2.174-.257,7.917-1.089a.166.166,0,0,1,.109.307c-.581.35-5.7,3.437-6.551,3.437s-6.927.2-6.977.2Zm1.649-1.372-1.184,1.029c1.458-.049,5.826-.191,6.522-.191.518,0,3.467-1.649,5.69-2.969l-7.116.99h0l-2.144.254Zm3.889-1.32" transform="translate(-27.713 -20.473)" fill="#263238"/>
    <path id="Path_1196" data-name="Path 1196" d="M293.21,417l-3.193.4-2.309,1.537-6.132.4-.746.643s6.156-.2,6.984-.2C288.417,419.781,291.531,417.99,293.21,417Z" transform="translate(-28.031 -22.063)" fill="#fff"/>
    <path id="Path_1197" data-name="Path 1197" d="M280.519,419.8a.165.165,0,0,1-.109-.287l.745-.66a.166.166,0,0,1,.1-.04l6.09-.4,2.27-1.514a.181.181,0,0,1,.069-.026l3.193-.4a.165.165,0,0,1,.175.112.162.162,0,0,1-.073.195c-2.167,1.277-4.872,2.8-5.473,2.8-.815,0-6.927.2-6.977.2Zm.811-.66-.35.3c1.458-.049,5.826-.191,6.522-.191a23.378,23.378,0,0,0,4.618-2.345l-2.355.294-2.27,1.527a.189.189,0,0,1-.082.03Z" transform="translate(-27.713 -21.713)" fill="#263238"/>
    <path id="Path_1198" data-name="Path 1198" d="M244.889,419.828l-.412,1.343-.927-.571a2.348,2.348,0,0,1,.66-1.6Z" transform="translate(-3.049 -23.403)" fill="#666"/>
    <path id="Path_1199" data-name="Path 1199" d="M244.142,421a.166.166,0,0,1-.089-.023l-.927-.574a.162.162,0,0,1-.076-.135,2.482,2.482,0,0,1,.719-1.722.144.144,0,0,1,.122-.046.165.165,0,0,1,.119.059l.66.828a.169.169,0,0,1,.03.152l-.416,1.346a.152.152,0,0,1-.1.106A.162.162,0,0,1,244.142,421Zm-.759-.828.66.412.33-1.056-.5-.614a2.216,2.216,0,0,0-.492,1.257Z" transform="translate(-2.713 -23.067)" fill="#263238"/>
    <path id="Path_1200" data-name="Path 1200" d="M244.589,423.29l-.99-.61a2.048,2.048,0,0,0-.04.386l.927.571Z" transform="translate(-3.055 -25.87)" fill="#fff"/>
    <path id="Path_1201" data-name="Path 1201" d="M244.142,423.465a.166.166,0,0,1-.089-.023l-.927-.574a.165.165,0,0,1-.076-.139,1.941,1.941,0,0,1,.043-.419.165.165,0,0,1,.247-.109l.99.61a.168.168,0,0,1,.073.191l-.109.346a.151.151,0,0,1-.1.106A.166.166,0,0,1,244.142,423.465Zm-.759-.828.66.412v-.023l-.66-.409Z" transform="translate(-2.713 -25.533)" fill="#263238"/>
    <path id="Path_1202" data-name="Path 1202" d="M245.57,418.055a4.547,4.547,0,0,0,2.639,1.5l.412,1.706h1.448l1.346-1.5s9.88-1.085,10.137-1.188a13.625,13.625,0,0,0,1.191-.726s-10.916.775-11.216.775-3.1-.155-3.1-.155l-2.537-.878Z" transform="translate(-4.402 -22.459)" fill="#263238"/>
    <path id="Path_1203" data-name="Path 1203" d="M249.728,421.12H248.28a.162.162,0,0,1-.158-.125l-.393-1.6a4.713,4.713,0,0,1-2.639-1.541.159.159,0,0,1,0-.185l.31-.465a.165.165,0,0,1,.191-.066l2.51.874c.27,0,2.784.152,3.071.152s7.442-.5,11.216-.775a.165.165,0,0,1,.168.112.168.168,0,0,1-.063.191,13.358,13.358,0,0,1-1.221.739c-.264.106-8.329.99-10.117,1.194l-1.32,1.451A.159.159,0,0,1,249.728,421.12Zm-1.32-.33h1.25l1.3-1.445a.173.173,0,0,1,.106-.056c3.9-.426,9.807-1.1,10.1-1.181a5.709,5.709,0,0,0,.617-.356c-2.362.165-10.325.729-10.6.729s-3-.148-3.111-.155a.119.119,0,0,1-.046,0l-2.415-.835-.172.257a4.924,4.924,0,0,0,2.477,1.349.165.165,0,0,1,.115.122Z" transform="translate(-4.06 -22.152)" fill="#263238"/>
    <path id="Path_1204" data-name="Path 1204" d="M298.9,444.665a.915.915,0,0,1-1.009.775c-.557,0-1.009-.33-1.009-.775s.452-.775,1.009-.775A.915.915,0,0,1,298.9,444.665Z" transform="translate(-38.786 -40.083)" fill="#263238"/>
    <path id="Path_1205" data-name="Path 1205" d="M297.614,445.27a.963.963,0,1,1,1.174-.94A1.09,1.09,0,0,1,297.614,445.27Zm0-1.55c-.465,0-.845.274-.845.61s.379.61.845.61.844-.274.844-.61-.4-.61-.844-.61Z" transform="translate(-38.491 -39.748)" fill="#263238"/>
    <path id="Path_1206" data-name="Path 1206" d="M456.626,414.132c0-.584-.541-.389-.917-.419l-1.669.419-.33,1.168,2.507,1.339A21.893,21.893,0,0,0,456.626,414.132Z" transform="translate(-143.881 -19.855)" fill="#263238"/>
    <path id="Path_1207" data-name="Path 1207" d="M455.865,416.483a.174.174,0,0,1-.079-.02l-2.5-1.339a.171.171,0,0,1-.082-.191l.33-1.171a.155.155,0,0,1,.115-.112l1.672-.419h.049a1.55,1.55,0,0,0,.247,0,.881.881,0,0,1,.66.142.588.588,0,0,1,.158.445,21.478,21.478,0,0,1-.419,2.54.172.172,0,0,1-.092.115A.181.181,0,0,1,455.865,416.483Zm-2.309-1.587,2.194,1.171a18.571,18.571,0,0,0,.366-2.256.281.281,0,0,0-.056-.208c-.073-.066-.257-.056-.422-.049a2.233,2.233,0,0,1-.257,0l-1.554.389Z" transform="translate(-143.536 -19.528)" fill="#263238"/>
    <path id="Path_1208" data-name="Path 1208" d="M445.255,411.562a.165.165,0,0,1,0-.33c1.353-.036,2.494-.046,3.391-.033a.162.162,0,0,1,.162.162v.007a.155.155,0,0,1-.148.162h-.02c-.891,0-2.029,0-3.375.033Z" transform="translate(-138.105 -18.172)" fill="#263238"/>
    <path id="Path_1209" data-name="Path 1209" d="M368.4,413.344a.165.165,0,1,1,0-.33c7.079-.557,16.933-1.277,23.662-1.534a.168.168,0,0,1,.172.162.162.162,0,0,1-.155.168h0c-6.726.257-16.573.99-23.649,1.531Z" transform="translate(-86.606 -18.364)" fill="#263238"/>
    <path id="Path_1210" data-name="Path 1210" d="M343.235,417.349a.165.165,0,0,1,0-.33c1.554-.132,3.995-.33,6.928-.571a.165.165,0,0,1,.178.151h0a.165.165,0,0,1-.151.178h0c-2.923.231-5.364.435-6.927.567Z" transform="translate(-69.739 -21.693)" fill="#263238"/>
    <path id="Path_1211" data-name="Path 1211" d="M337.67,418.8a.165.165,0,0,1-.015-.33h0l1.092-.092a.172.172,0,0,1,.181.148.165.165,0,0,1-.151.178h0l-1.092.1Z" transform="translate(-66.011 -22.987)" fill="#263238"/>
    <path id="Path_1212" data-name="Path 1212" d="M241.945,429.19h9.26l2.174,1.191,2.9,4.7-2.847.828H240.811l-.571-1.448.31-4.447Z" transform="translate(-0.83 -30.232)" fill="#263238"/>
    <path id="Path_1213" data-name="Path 1213" d="M253.135,435.743H240.527a.161.161,0,0,1-.152-.1l-.571-1.448a.268.268,0,0,1,0-.073l.31-4.45a.165.165,0,0,1,.082-.129l1.4-.828a.149.149,0,0,1,.082-.023h9.26a.158.158,0,0,1,.079.02l2.174,1.191a.159.159,0,0,1,.059.056l2.9,4.707a.165.165,0,0,1-.054.227.162.162,0,0,1-.038.017l-2.847.828A.107.107,0,0,1,253.135,435.743Zm-12.506-.33h12.483l2.616-.759-2.761-4.486-2.1-1.148H241.7l-1.283.762-.3,4.325Z" transform="translate(-0.537 -29.897)" fill="#263238"/>
    <rect id="Rectangle_1567" data-name="Rectangle 1567" width="7.033" height="2.949" transform="translate(241.168 400.096)" fill="#fff"/>
    <path id="Path_1214" data-name="Path 1214" d="M272.605,433.93h-3.14a.165.165,0,1,1,0-.33h3.14a.165.165,0,0,1,.165.165A.168.168,0,0,1,272.605,433.93Z" transform="translate(-20.304 -33.187)" fill="#737373"/>
    <path id="Path_1215" data-name="Path 1215" d="M273.765,437.43h-3.8a.165.165,0,0,1,0-.33h3.8a.165.165,0,0,1,0,.33Z" transform="translate(-20.639 -35.533)" fill="#737373"/>
    <path id="Path_1216" data-name="Path 1216" d="M274.613,440.94h-4.618a.165.165,0,0,1,0-.33h4.618a.165.165,0,0,1,0,.33Z" transform="translate(-20.659 -37.885)" fill="#737373"/>
    <path id="Path_1217" data-name="Path 1217" d="M266.351,444.45h-9.916a.168.168,0,0,1-.165-.165.165.165,0,0,1,.165-.165h9.916a.165.165,0,1,1,0,.33Z" transform="translate(-11.572 -40.237)" fill="#737373"/>
    <path id="Path_1218" data-name="Path 1218" d="M256.547,447.59H241.8a.165.165,0,0,1-.165-.165.168.168,0,0,1,.165-.165h14.742a.165.165,0,1,1,0,.33Z" transform="translate(-1.769 -42.341)" fill="#737373"/>
    <path id="Path_1219" data-name="Path 1219" d="M364.169,400.94h-3.853c-.96.511-1.725,1.033-1.689,1.442.092,1.036.462,1.438.92,1.438h3.843s1.689-.96,1.534-1.92A1.649,1.649,0,0,0,364.169,400.94Z" transform="translate(-80.164 -11.301)" fill="#fff"/>
    <path id="Path_1220" data-name="Path 1220" d="M363.054,403.65h-3.843c-.429,0-.967-.274-1.085-1.59-.04-.435.508-.927,1.778-1.6a.152.152,0,0,1,.076-.02h3.853a.171.171,0,0,1,.1.03,1.791,1.791,0,0,1,.825,1.069c.168,1.062-1.544,2.049-1.62,2.091A.166.166,0,0,1,363.054,403.65Zm-3.032-2.88c-1.4.746-1.58,1.108-1.567,1.26.053.59.228,1.29.755,1.29h3.8c.465-.274,1.527-1.052,1.418-1.729a1.438,1.438,0,0,0-.66-.821Z" transform="translate(-79.827 -10.966)" fill="#263238"/>
    <path id="Path_1221" data-name="Path 1221" d="M363.263,405.14h-4.948a.165.165,0,1,1,0-.33h4.948a.165.165,0,0,1,.165.165A.168.168,0,0,1,363.263,405.14Z" transform="translate(-79.844 -13.894)" fill="#263238"/>
    <path id="Path_1222" data-name="Path 1222" d="M361.42,409.637l.231,1.25.33.33,1.046-.214s-.459.115-.33-1.382Z" transform="translate(-82.036 -17.118)" fill="#263238"/>
    <path id="Path_1223" data-name="Path 1223" d="M361.668,411.093a.164.164,0,0,1-.115-.046l-.33-.33a.169.169,0,0,1-.046-.086l-.231-1.25a.162.162,0,0,1,.036-.132.155.155,0,0,1,.125-.063l1.267-.016a.158.158,0,0,1,.166.151.145.145,0,0,1,0,.024c-.079,1.059.142,1.2.162,1.207a.158.158,0,0,1,.181.129.162.162,0,0,1-.119.195h0l-1.049.214Zm-.181-.577.234.234.61-.125a2.341,2.341,0,0,1-.139-1.128H361.3Z" transform="translate(-81.716 -16.816)" fill="#263238"/>
    <path id="Path_1224" data-name="Path 1224" d="M295.51,433.38H284.255a.165.165,0,0,1-.165-.165.168.168,0,0,1,.165-.165H295.51a.165.165,0,0,1,0,.33Z" transform="translate(-30.215 -32.819)" fill="#263238"/>
    <path id="Path_1225" data-name="Path 1225" d="M289.32,435.021h4.5l.752-.531-1.28-4.994-3.662-1.715,3.474,2.19,1.079,3.965-1.009.775Z" transform="translate(-33.72 -29.287)" fill="#263238"/>
    <path id="Path_1226" data-name="Path 1226" d="M293.5,434.859h-4.513a.165.165,0,1,1,0-.33l3.8-.307.884-.676-1.036-3.8-3.427-2.157a.165.165,0,0,1,.158-.287l3.665,1.712a.175.175,0,0,1,.089.109l1.273,5a.162.162,0,0,1-.063.178l-.752.531A.17.17,0,0,1,293.5,434.859Zm-.567-.33h.515l.617-.435-.092-.363h0l-1.009.779Zm-1.32-5.812,1.247.788a.061.061,0,0,1,.023.016l-.059-.238Z" transform="translate(-33.385 -28.96)" fill="#263238"/>
  </g>
</svg>
