<svg xmlns="http://www.w3.org/2000/svg" width="35" height="35" viewBox="0 0 35 35">
  <g id="Group_714" data-name="Group 714" transform="translate(-392 -10)">
    <g id="Component_2_291" data-name="Component 2 – 291" transform="translate(392 10)">
      <rect id="Rectangle_10" data-name="Rectangle 10" width="35" height="35" fill="none"/>
      <path id="speed_24dp_5F6368_FILL0_wght400_GRAD0_opsz24" d="M90.139-786.2a2.468,2.468,0,0,0,1.86.7,1.909,1.909,0,0,0,1.68-.825L100.4-796.4l-10.079,6.719a1.949,1.949,0,0,0-.855,1.65A2.336,2.336,0,0,0,90.139-786.2ZM92-800a11.686,11.686,0,0,1,3.4.495,11.055,11.055,0,0,1,3.075,1.485l-2.28,1.44a9.1,9.1,0,0,0-2.055-.765A9.181,9.181,0,0,0,92-797.6a9.254,9.254,0,0,0-6.794,2.8A9.254,9.254,0,0,0,82.4-788a9.178,9.178,0,0,0,.345,2.49,9.834,9.834,0,0,0,.975,2.31h16.559a8.757,8.757,0,0,0,1-2.37,10.237,10.237,0,0,0,.315-2.55,8.625,8.625,0,0,0-.255-2.1,8.713,8.713,0,0,0-.765-1.98l1.44-2.28a13.31,13.31,0,0,1,1.425,3,11.083,11.083,0,0,1,.555,3.3,11.726,11.726,0,0,1-.39,3.27,12.421,12.421,0,0,1-1.23,2.97,2.276,2.276,0,0,1-.9.84,2.542,2.542,0,0,1-1.2.3H83.72a2.542,2.542,0,0,1-1.2-.3,2.276,2.276,0,0,1-.9-.84,12.237,12.237,0,0,1-1.2-2.865A11.907,11.907,0,0,1,80-788a11.578,11.578,0,0,1,.945-4.665,12.219,12.219,0,0,1,2.58-3.81,12.17,12.17,0,0,1,3.825-2.58A11.61,11.61,0,0,1,92-800ZM92.209-790.611Z" transform="translate(-74.5 807.901)" fill="#fffc01"/>
    </g>
  </g>
</svg>
